<svg width="320" height="155" viewBox="0 0 320 155" fill="none" xmlns="http://www.w3.org/2000/svg">
<g id="pattern">
<path id="Combined Shape" d="M130.557 5.84404L130.296 6.27045L130.557 6.43032L130.818 6.27045L130.557 5.84404ZM132.77 4.48903L133.031 4.91544L133.768 4.4645L133.01 4.0503L132.77 4.48903ZM128.344 4.48903L128.105 4.0503L127.347 4.4645L128.083 4.91544L128.344 4.48903ZM130.557 3.27931L130.797 2.84058L130.557 2.70948L130.318 2.84058L130.557 3.27931ZM126.321 5.59516L126.582 5.16875V5.16875L126.321 5.59516ZM130.557 8.18917L130.296 8.61558L130.557 8.77545L130.818 8.61559L130.557 8.18917ZM124.354 4.39094L124.114 3.95221L123.357 4.36642L124.093 4.81736L124.354 4.39094ZM126.378 3.2848L126.138 2.84608V2.84608L126.378 3.2848ZM130.557 1L130.797 0.561271L130.557 0.430172L130.318 0.561271L130.557 1ZM134.737 3.2848L134.977 2.84608V2.84608L134.737 3.2848ZM136.761 4.39094L137.022 4.81736L137.758 4.36642L137 3.95221L136.761 4.39094ZM134.794 5.59516L135.055 6.02158L134.794 5.59516ZM20.5885 23.2962L20.945 23.6468L21.5505 23.0309L20.715 22.8124L20.5885 23.2962ZM18.7683 25.1473L18.6181 25.6242L18.9101 25.7161L19.1248 25.4979L18.7683 25.1473ZM18.1498 22.6585L18.2763 22.1748L18.0119 22.1056L17.8109 22.2909L18.1498 22.6585ZM16.2944 24.3687L15.9555 24.001L15.3205 24.5863L16.1443 24.8456L16.2944 24.3687ZM19.3358 27.4226L19.1857 27.8996L19.4777 27.9915L19.6923 27.7732L19.3358 27.4226ZM14.5986 25.9317L14.4485 26.4086L14.5986 25.9317ZM22.8197 23.8796L22.4632 23.529L22.8197 23.8796ZM24.4367 22.2352L24.7932 22.5858L25.3988 21.9699L24.5632 21.7514L24.4367 22.2352ZM22.2055 21.6518L22.079 22.1355L22.2055 21.6518ZM17.5981 20.447L17.7246 19.9633L17.4602 19.8942L17.2593 20.0794L17.5981 20.447ZM14.0946 23.6763L13.7557 23.3086L14.0946 23.6763ZM12.3988 25.2393L12.0599 24.8716L11.4249 25.4569L12.2487 25.7162L12.3988 25.2393ZM87.7103 26.4198L88.1015 26.1084L87.9109 25.8689L87.6109 25.9298L87.7103 26.4198ZM85.1691 26.9353L85.0697 26.4452L84.2232 26.6169L84.7936 27.2655L85.1691 26.9353ZM89.3274 28.4514L89.4025 28.9457L90.2565 28.8158L89.7186 28.14L89.3274 28.4514ZM86.8359 28.8303L86.4604 29.1605L86.6409 29.3657L86.9111 29.3246L86.8359 28.8303ZM91.6075 28.1045L91.9987 27.7931V27.7931L91.6075 28.1045ZM88.5126 24.2163L88.9038 23.905L88.7132 23.6655L88.4132 23.7263L88.5126 24.2163ZM93.0439 29.9091L93.1191 30.4034L93.973 30.2735L93.4351 29.5977L93.0439 29.9091ZM90.7637 30.2559L90.6885 29.7616L90.7637 30.2559ZM86.056 30.972L85.6806 31.3022L85.861 31.5074L86.1312 31.4663L86.056 30.972ZM82.9088 27.3937L82.5333 27.724L82.9088 27.3937ZM81.3856 25.662L81.2862 25.1719L80.4397 25.3436L81.0102 25.9922L81.3856 25.662ZM83.6459 25.2035L83.5465 24.7135L83.6459 25.2035ZM15.5223 84.069L15.981 83.8699L15.8589 83.5886L15.5529 83.5699L15.5223 84.069ZM12.9369 83.9106L12.9675 83.4116L12.1069 83.3588L12.4885 84.1319L12.9369 83.9106ZM16.5578 86.4553L16.5027 86.9522L17.3597 87.0472L17.0165 86.2562L16.5578 86.4553ZM14.0561 86.1778L13.6077 86.3992L13.7289 86.6446L14.001 86.6748L14.0561 86.1778ZM18.8482 86.7092L19.3069 86.5102L18.8482 86.7092ZM16.8688 82.1477L17.3274 81.9486L17.2054 81.6674L16.8993 81.6486L16.8688 82.1477ZM19.7655 88.8232L19.7104 89.3202L20.5675 89.4152L20.2242 88.6242L19.7655 88.8232ZM17.4751 88.5692L17.5303 88.0723L17.4751 88.5692ZM12.7473 88.045L12.299 88.2663L12.4201 88.5118L12.6922 88.5419L12.7473 88.045ZM10.637 83.7697L11.0853 83.5484L10.637 83.7697ZM9.61704 81.7035L9.64761 81.2045L8.78708 81.1518L9.16869 81.9248L9.61704 81.7035ZM11.917 81.8444L11.8864 82.3435L11.917 81.8444ZM312.477 29.5488L312.377 29.0587L311.531 29.2304L312.101 29.879L312.477 29.5488ZM315.018 29.0333L315.409 28.7219L315.219 28.4824L314.919 28.5433L315.018 29.0333ZM314.144 31.4438L313.768 31.774L313.949 31.9792L314.219 31.9381L314.144 31.4438ZM316.635 31.0649L316.71 31.5592L317.564 31.4293L317.026 30.7535L316.635 31.0649ZM315.82 26.8298L316.212 26.5185L316.021 26.279L315.721 26.3398L315.82 26.8298ZM318.915 30.718L319.306 30.4066V30.4066L318.915 30.718ZM310.954 27.817L310.854 27.327L310.954 27.817ZM308.693 28.2755L308.594 27.7854L307.747 27.9571L308.318 28.6057L308.693 28.2755ZM310.217 30.0072L309.841 30.3375V30.3375L310.217 30.0072ZM313.364 33.5855L312.988 33.9157L313.169 34.1209L313.439 34.0798L313.364 33.5855ZM318.071 32.8694L318.147 33.3637L318.071 32.8694ZM320.352 32.5226L320.427 33.0169L321.281 32.887L320.743 32.2112L320.352 32.5226ZM56.5531 76.5188L56.3613 76.0571L56.0789 76.1744L56.0547 76.4792L56.5531 76.5188ZM56.3476 79.1075L55.8491 79.0679L55.7807 79.9298L56.5619 79.5592L56.3476 79.1075ZM58.9463 75.5245L59.4422 75.5885L59.5529 74.731L58.7545 75.0627L58.9463 75.5245ZM58.6233 78.0279L58.8376 78.4797L59.0843 78.3627L59.1192 78.0919L58.6233 78.0279ZM59.2416 73.236L59.4335 73.6978L59.2416 73.236ZM54.6562 75.1412L54.4644 74.6795L54.182 74.7968L54.1578 75.1016L54.6562 75.1412ZM61.3724 72.3507L61.8683 72.4147L61.979 71.5573L61.1806 71.889L61.3724 72.3507ZM61.0771 74.6391L61.573 74.7031L61.0771 74.6391ZM60.4671 79.3669L60.6814 79.8186L60.9281 79.7016L60.963 79.4309L60.4671 79.3669ZM56.1649 81.4078L56.3792 81.8595L56.1649 81.4078ZM54.0801 82.3968L53.5817 82.3572L53.5132 83.2191L54.2944 82.8485L54.0801 82.3968ZM54.2627 80.0965L54.7612 80.1361L54.2627 80.0965ZM89.5281 102.335L89.0281 102.332L89.0234 103.196L89.7748 102.77L89.5281 102.335ZM95.8479 98.7487L96.0947 99.1836L96.3608 99.0326L96.3474 98.7269L95.8479 98.7487ZM89.5667 95.2563L89.2988 94.8341L89.0681 94.9804L89.0667 95.2535L89.5667 95.2563ZM95.5306 91.4724L96.0302 91.4507L95.9925 90.5873L95.2628 91.0502L95.5306 91.4724ZM222.939 39.6261L223.106 40.0972L223.395 39.9948L223.435 39.6917L222.939 39.6261ZM216.086 42.0609L215.594 41.9711L215.439 42.8215L216.253 42.5321L216.086 42.0609ZM223.894 32.4106L224.389 32.4762L224.503 31.6191L223.703 31.9483L223.894 32.4106ZM217.357 35.1018L217.167 34.6394L216.914 34.7434L216.865 35.012L217.357 35.1018ZM-16.3051 49.8552L-15.9543 50.2114L-15.7365 49.9969L-15.8281 49.7053L-16.3051 49.8552ZM-17.083 47.3793L-16.606 47.2295L-16.8653 46.4042L-17.451 47.0408L-17.083 47.3793ZM-18.1521 51.6746L-18.6359 51.8009L-18.4174 52.6379L-17.8012 52.0308L-18.1521 51.6746ZM-18.7892 49.2338L-19.1572 48.8953L-19.3419 49.0961L-19.273 49.3601L-18.7892 49.2338ZM-17.5692 53.9079L-17.2183 54.2641L-17.5692 53.9079ZM-14.0307 50.4221L-13.6798 50.7783L-13.4621 50.5638L-13.5537 50.2722L-14.0307 50.4221ZM-19.2134 55.5276L-19.6972 55.6539L-19.4788 56.4908L-18.8626 55.8838L-19.2134 55.5276ZM-19.7963 53.2944L-20.2801 53.4206L-19.7963 53.2944ZM-21 48.6828L-21.368 48.3443L-21.5527 48.5451L-21.4838 48.8091L-21 48.6828ZM-17.7748 45.1773L-18.1428 44.8388H-18.1428L-17.7748 45.1773ZM-16.2121 43.4788L-15.735 43.3289L-15.9943 42.5037L-16.58 43.1403L-16.2121 43.4788ZM-15.5203 45.6808L-15.0432 45.5309L-15.5203 45.6808ZM272.786 82.4002L273.263 82.2504L273.004 81.4251L272.419 82.0617L272.786 82.4002ZM273.564 84.8761L273.915 85.2323L274.133 85.0179L274.041 84.7263L273.564 84.8761ZM271.08 84.2547L270.712 83.9162L270.528 84.117L270.596 84.381L271.08 84.2547ZM271.717 86.6956L271.234 86.8218L271.452 87.6588L272.068 87.0518L271.717 86.6956ZM275.839 85.443L276.19 85.7992L276.407 85.5847L276.316 85.2931L275.839 85.443ZM272.3 88.9288L271.949 88.5726V88.5726L272.3 88.9288ZM274.349 80.7017L274.826 80.5518L274.349 80.7017ZM273.657 78.4997L274.134 78.3499L273.875 77.5246L273.289 78.1612L273.657 78.4997ZM272.095 80.1983L271.727 79.8597L272.095 80.1983ZM268.869 83.7038L268.502 83.3652L268.317 83.566L268.386 83.83L268.869 83.7038ZM270.073 88.3153L269.589 88.4416V88.4416L270.073 88.3153ZM270.656 90.5485L270.172 90.6748L270.391 91.5117L271.007 90.9047L270.656 90.5485ZM298.843 97.1591L299.255 97.4424L299.745 96.7304L298.884 96.6607L298.843 97.1591ZM297.37 99.3014L297.305 99.7972L297.609 99.8369L297.782 99.5847L297.37 99.3014ZM296.335 96.956L296.375 96.4577L296.103 96.4356L295.937 96.6529L296.335 96.956ZM294.803 98.9658L294.405 98.6627L293.881 99.3496L294.738 99.4616L294.803 98.9658ZM298.325 101.443L298.26 101.939L298.564 101.979L298.737 101.727L298.325 101.443ZM293.404 100.8L293.469 100.304L293.404 100.8ZM301.142 97.3452L301.554 97.6285L301.142 97.3452ZM302.449 95.4444L302.861 95.7277L303.35 95.0158L302.489 94.9461L302.449 95.4444ZM300.15 95.2583L300.19 94.76L300.15 95.2583ZM295.407 94.8744L295.447 94.376L295.175 94.354L295.009 94.5713L295.407 94.8744ZM292.516 98.6668L292.913 98.97L292.913 98.9699L292.516 98.6668ZM291.117 100.501L290.72 100.198L290.196 100.885L291.052 100.997L291.117 100.501ZM99.5858 147.908L99.142 147.677L99.0012 147.949L99.1784 148.198L99.5858 147.908ZM101.089 150.021L100.682 150.311L101.183 151.016L101.544 150.229L101.089 150.021ZM100.781 145.605L101.202 145.336L100.736 144.607L100.337 145.375L100.781 145.605ZM102.14 147.729L102.594 147.937L102.708 147.689L102.561 147.459L102.14 147.729ZM99.5369 143.661L99.9806 143.892L99.9806 143.892L99.5369 143.661ZM97.2475 148.071L96.8037 147.841L96.6629 148.112L96.8401 148.361L97.2475 148.071ZM100.6 141.613L101.021 141.343L100.555 140.614L100.157 141.382L100.6 141.613ZM101.845 143.557L101.423 143.826L101.845 143.557ZM104.413 147.57L104.867 147.778L104.981 147.53L104.834 147.3L104.413 147.57ZM102.427 151.902L101.973 151.693L102.427 151.902ZM101.466 154L101.058 154.29L101.56 154.995L101.92 154.208L101.466 154ZM100.128 152.119L100.535 151.829L100.128 152.119ZM339.312 105.999L338.981 106.373L339.628 106.947L339.802 106.1L339.312 105.999ZM337.373 104.279L336.889 104.154L336.812 104.45L337.041 104.653L337.373 104.279ZM339.821 103.528L340.311 103.629L340.366 103.362L340.171 103.171L339.821 103.528ZM338.02 101.766L338.37 101.408L337.752 100.803L337.536 101.641L338.02 101.766ZM335.131 104.964L334.647 104.839L334.571 105.135L334.799 105.338L335.131 104.964ZM336.371 100.151L336.855 100.276V100.276L336.371 100.151ZM338.847 108.26L339.179 107.886L338.847 108.26ZM340.574 109.791L340.242 110.165L340.889 110.739L341.064 109.892L340.574 109.791ZM341.039 107.531L340.549 107.43V107.43L341.039 107.531ZM342 102.862L342.49 102.963L342.545 102.696L342.35 102.505L342 102.862ZM338.596 99.5305L338.246 99.8878L338.596 99.5305ZM336.947 97.916L337.296 97.5587L336.678 96.9537L336.462 97.7913L336.947 97.916ZM249.506 133.444L249.339 132.973L249.051 133.075L249.011 133.379L249.506 133.444ZM249.166 136.019L248.67 135.953L248.557 136.81L249.356 136.481L249.166 136.019ZM251.948 132.577L252.44 132.666L252.595 131.816L251.781 132.105L251.948 132.577ZM251.495 135.06L251.685 135.522L251.938 135.418L251.987 135.15L251.495 135.06ZM252.363 130.307L252.53 130.778L252.363 130.307ZM247.684 131.969L247.517 131.498L247.228 131.6L247.188 131.904L247.684 131.969ZM254.537 129.534L255.029 129.624L255.184 128.774L254.37 129.063L254.537 129.534ZM254.122 131.804L253.631 131.714L254.122 131.804ZM253.266 136.493L253.456 136.956L253.709 136.852L253.758 136.583L253.266 136.493ZM248.863 138.306L248.673 137.844L248.863 138.306ZM246.729 139.185L246.234 139.119L246.12 139.976L246.92 139.647L246.729 139.185ZM247.032 136.897L247.528 136.963L247.032 136.897ZM130.818 6.27045L133.031 4.91544L132.509 4.06261L130.296 5.41762L130.818 6.27045ZM128.083 4.91544L130.296 6.27045L130.818 5.41762L128.605 4.06261L128.083 4.91544ZM130.318 2.84058L128.105 4.0503L128.584 4.92775L130.797 3.71804L130.318 2.84058ZM133.01 4.0503L130.797 2.84058L130.318 3.71804L132.531 4.92775L133.01 4.0503ZM126.06 6.02158L130.296 8.61558L130.818 7.76275L126.582 5.16875L126.06 6.02158ZM124.093 4.81736L126.06 6.02158L126.582 5.16875L124.615 3.96452L124.093 4.81736ZM126.138 2.84608L124.114 3.95221L124.594 4.82967L126.617 3.72353L126.138 2.84608ZM130.318 0.561271L126.138 2.84608L126.617 3.72353L130.797 1.43873L130.318 0.561271ZM134.977 2.84608L130.797 0.561271L130.318 1.43873L134.497 3.72353L134.977 2.84608ZM137 3.95221L134.977 2.84608L134.497 3.72353L136.521 4.82967L137 3.95221ZM135.055 6.02158L137.022 4.81736L136.499 3.96452L134.533 5.16875L135.055 6.02158ZM130.818 8.61559L135.055 6.02158L134.533 5.16875L130.296 7.76275L130.818 8.61559ZM20.232 22.9456L18.4117 24.7967L19.1248 25.4979L20.945 23.6468L20.232 22.9456ZM18.0233 23.1423L20.462 23.7799L20.715 22.8124L18.2763 22.1748L18.0233 23.1423ZM16.6332 24.7363L18.4887 23.0262L17.8109 22.2909L15.9555 24.001L16.6332 24.7363ZM18.9184 24.6704L16.4445 23.8917L16.1443 24.8456L18.6181 25.6242L18.9184 24.6704ZM19.4859 26.9457L14.7487 25.4547L14.4485 26.4086L19.1857 27.8996L19.4859 26.9457ZM22.4632 23.529L18.9793 27.0721L19.6923 27.7732L23.1762 24.2302L22.4632 23.529ZM24.0802 21.8846L22.4632 23.529L23.1762 24.2302L24.7932 22.5858L24.0802 21.8846ZM22.079 22.1355L24.3102 22.7189L24.5632 21.7514L22.332 21.168L22.079 22.1355ZM17.4717 20.9308L22.079 22.1355L22.332 21.168L17.7246 19.9633L17.4717 20.9308ZM14.4334 24.0439L17.937 20.8147L17.2593 20.0794L13.7557 23.3086L14.4334 24.0439ZM12.7377 25.6069L14.4334 24.0439L13.7557 23.3086L12.0599 24.8716L12.7377 25.6069ZM14.7487 25.4547L12.5489 24.7624L12.2487 25.7162L14.4485 26.4086L14.7487 25.4547ZM87.6109 25.9298L85.0697 26.4452L85.2685 27.4253L87.8097 26.9098L87.6109 25.9298ZM89.7186 28.14L88.1015 26.1084L87.3191 26.7312L88.9362 28.7627L89.7186 28.14ZM86.9111 29.3246L89.4025 28.9457L89.2522 27.957L86.7607 28.336L86.9111 29.3246ZM84.7936 27.2655L86.4604 29.1605L87.2113 28.5001L85.5445 26.605L84.7936 27.2655ZM91.9987 27.7931L88.9038 23.905L88.1214 24.5277L91.2163 28.4159L91.9987 27.7931ZM93.4351 29.5977L91.9987 27.7931L91.2163 28.4159L92.6527 30.2204L93.4351 29.5977ZM90.8389 30.7502L93.1191 30.4034L92.9687 29.4147L90.6885 29.7616L90.8389 30.7502ZM86.1312 31.4663L90.8389 30.7502L90.6885 29.7616L85.9808 30.4776L86.1312 31.4663ZM82.5333 27.724L85.6806 31.3022L86.4315 30.6417L83.2842 27.0635L82.5333 27.724ZM81.0102 25.9922L82.5333 27.724L83.2842 27.0635L81.7611 25.3317L81.0102 25.9922ZM83.5465 24.7135L81.2862 25.1719L81.485 26.152L83.7453 25.6935L83.5465 24.7135ZM88.4132 23.7263L83.5465 24.7135L83.7453 25.6935L88.612 24.7064L88.4132 23.7263ZM15.5529 83.5699L12.9675 83.4116L12.9063 84.4097L15.4917 84.568L15.5529 83.5699ZM17.0165 86.2562L15.981 83.8699L15.0636 84.268L16.0991 86.6543L17.0165 86.2562ZM14.001 86.6748L16.5027 86.9522L16.6129 85.9583L14.1112 85.6809L14.001 86.6748ZM12.4885 84.1319L13.6077 86.3992L14.5044 85.9565L13.3853 83.6893L12.4885 84.1319ZM19.3069 86.5102L17.3274 81.9486L16.4101 82.3467L18.3895 86.9083L19.3069 86.5102ZM20.2242 88.6242L19.3069 86.5102L18.3895 86.9083L19.3069 89.0223L20.2242 88.6242ZM17.42 89.0662L19.7104 89.3202L19.8207 88.3263L17.5303 88.0723L17.42 89.0662ZM12.6922 88.5419L17.42 89.0662L17.5303 88.0723L12.8024 87.548L12.6922 88.5419ZM10.1886 83.9911L12.299 88.2663L13.1957 87.8237L11.0853 83.5484L10.1886 83.9911ZM9.16869 81.9248L10.1886 83.9911L11.0853 83.5484L10.0654 81.4822L9.16869 81.9248ZM11.9475 81.3453L9.64761 81.2045L9.58648 82.2026L11.8864 82.3435L11.9475 81.3453ZM16.8993 81.6486L11.9475 81.3453L11.8864 82.3435L16.8382 82.6467L16.8993 81.6486ZM312.576 30.0388L315.117 29.5233L314.919 28.5433L312.377 29.0587L312.576 30.0388ZM314.519 31.1136L312.852 29.2186L312.101 29.879L313.768 31.774L314.519 31.1136ZM316.56 30.5705L314.068 30.9495L314.219 31.9381L316.71 31.5592L316.56 30.5705ZM314.627 29.3447L316.244 31.3762L317.026 30.7535L315.409 28.7219L314.627 29.3447ZM315.429 27.1412L318.524 31.0294L319.306 30.4066L316.212 26.5185L315.429 27.1412ZM311.053 28.307L315.92 27.3199L315.721 26.3398L310.854 27.327L311.053 28.307ZM308.793 28.7655L311.053 28.307L310.854 27.327L308.594 27.7854L308.793 28.7655ZM310.592 29.677L309.069 27.9453L308.318 28.6057L309.841 30.3375L310.592 29.677ZM313.739 33.2552L310.592 29.677L309.841 30.3375L312.988 33.9157L313.739 33.2552ZM317.996 32.3751L313.289 33.0911L313.439 34.0798L318.147 33.3637L317.996 32.3751ZM320.276 32.0282L317.996 32.3751L318.147 33.3637L320.427 33.0169L320.276 32.0282ZM318.524 31.0294L319.96 32.8339L320.743 32.2112L319.306 30.4066L318.524 31.0294ZM56.0547 76.4792L55.8491 79.0679L56.846 79.1471L57.0515 76.5584L56.0547 76.4792ZM58.7545 75.0627L56.3613 76.0571L56.745 76.9806L59.1382 75.9862L58.7545 75.0627ZM59.1192 78.0919L59.4422 75.5885L58.4504 75.4605L58.1274 77.9639L59.1192 78.0919ZM56.5619 79.5592L58.8376 78.4797L58.409 77.5762L56.1333 78.6558L56.5619 79.5592ZM59.0498 72.7743L54.4644 74.6795L54.848 75.6029L59.4335 73.6978L59.0498 72.7743ZM61.1806 71.889L59.0498 72.7743L59.4335 73.6978L61.5643 72.8124L61.1806 71.889ZM61.573 74.7031L61.8683 72.4147L60.8765 72.2867L60.5813 74.5752L61.573 74.7031ZM60.963 79.4309L61.573 74.7031L60.5813 74.5752L59.9712 79.3029L60.963 79.4309ZM56.3792 81.8595L60.6814 79.8186L60.2528 78.9151L55.9506 80.956L56.3792 81.8595ZM54.2944 82.8485L56.3792 81.8595L55.9506 80.956L53.8658 81.945L54.2944 82.8485ZM53.7643 80.0569L53.5817 82.3572L54.5785 82.4364L54.7612 80.1361L53.7643 80.0569ZM54.1578 75.1016L53.7643 80.0569L54.7612 80.1361L55.1546 75.1808L54.1578 75.1016ZM89.7748 102.77L96.0947 99.1836L95.6012 98.3138L89.2813 101.9L89.7748 102.77ZM89.0667 95.2535L89.0281 102.332L90.0281 102.337L90.0666 95.259L89.0667 95.2535ZM95.2628 91.0502L89.2988 94.8341L89.8345 95.6785L95.7985 91.8946L95.2628 91.0502ZM96.3474 98.7269L96.0302 91.4507L95.0311 91.4942L95.3484 98.7705L96.3474 98.7269ZM222.772 39.1549L215.919 41.5898L216.253 42.5321L223.106 40.0972L222.772 39.1549ZM223.398 32.345L222.443 39.5605L223.435 39.6917L224.389 32.4762L223.398 32.345ZM217.547 35.5641L224.084 32.873L223.703 31.9483L217.167 34.6394L217.547 35.5641ZM216.578 42.1508L217.849 35.1916L216.865 35.012L215.594 41.9711L216.578 42.1508ZM-15.8281 49.7053L-16.606 47.2295L-17.56 47.5292L-16.7822 50.0051L-15.8281 49.7053ZM-17.8012 52.0308L-15.9543 50.2114L-16.656 49.499L-18.503 51.3184L-17.8012 52.0308ZM-19.273 49.3601L-18.6359 51.8009L-17.6683 51.5484L-18.3054 49.1075L-19.273 49.3601ZM-17.451 47.0408L-19.1572 48.8953L-18.4212 49.5723L-16.715 47.7179L-17.451 47.0408ZM-17.2183 54.2641L-13.6798 50.7783L-14.3816 50.0659L-17.9201 53.5517L-17.2183 54.2641ZM-18.8626 55.8838L-17.2183 54.2641L-17.9201 53.5517L-19.5643 55.1714L-18.8626 55.8838ZM-20.2801 53.4206L-19.6972 55.6539L-18.7297 55.4013L-19.3126 53.1681L-20.2801 53.4206ZM-21.4838 48.8091L-20.2801 53.4206L-19.3126 53.1681L-20.5162 48.5566L-21.4838 48.8091ZM-18.1428 44.8388L-21.368 48.3443L-20.632 49.0214L-17.4068 45.5159L-18.1428 44.8388ZM-16.58 43.1403L-18.1428 44.8388L-17.4068 45.5159L-15.8441 43.8173L-16.58 43.1403ZM-15.0432 45.5309L-15.735 43.3289L-16.6891 43.6287L-15.9973 45.8306L-15.0432 45.5309ZM-13.5537 50.2722L-15.0432 45.5309L-15.9973 45.8306L-14.5077 50.5719L-13.5537 50.2722ZM272.309 82.5501L273.087 85.026L274.041 84.7263L273.263 82.2504L272.309 82.5501ZM271.448 84.5933L273.154 82.7388L272.419 82.0617L270.712 83.9162L271.448 84.5933ZM272.201 86.5693L271.564 84.1284L270.596 84.381L271.234 86.8218L272.201 86.5693ZM273.213 84.5199L271.366 86.3394L272.068 87.0518L273.915 85.2323L273.213 84.5199ZM275.488 85.0868L271.949 88.5726L272.651 89.285L276.19 85.7992L275.488 85.0868ZM273.872 80.8516L275.362 85.5929L276.316 85.2931L274.826 80.5518L273.872 80.8516ZM273.18 78.6496L273.872 80.8516L274.826 80.5518L274.134 78.3499L273.18 78.6496ZM272.463 80.5368L274.025 78.8383L273.289 78.1612L271.727 79.8597L272.463 80.5368ZM269.237 84.0423L272.463 80.5368L271.727 79.8597L268.502 83.3652L269.237 84.0423ZM270.557 88.189L269.353 83.5775L268.386 83.83L269.589 88.4416L270.557 88.189ZM271.14 90.4222L270.557 88.189L269.589 88.4416L270.172 90.6748L271.14 90.4222ZM271.949 88.5726L270.305 90.1923L271.007 90.9047L272.651 89.285L271.949 88.5726ZM298.431 96.8758L296.958 99.0182L297.782 99.5847L299.255 97.4424L298.431 96.8758ZM296.294 97.4544L298.803 97.6575L298.884 96.6607L296.375 96.4577L296.294 97.4544ZM295.2 99.2689L296.732 97.2592L295.937 96.6529L294.405 98.6627L295.2 99.2689ZM297.435 98.8057L294.867 98.47L294.738 99.4616L297.305 99.7972L297.435 98.8057ZM298.39 100.947L293.469 100.304L293.339 101.296L298.26 101.939L298.39 100.947ZM300.73 97.0619L297.913 101.16L298.737 101.727L301.554 97.6285L300.73 97.0619ZM302.037 95.1612L300.73 97.0619L301.554 97.6285L302.861 95.7277L302.037 95.1612ZM300.11 95.7567L302.409 95.9428L302.489 94.9461L300.19 94.76L300.11 95.7567ZM295.366 95.3727L300.11 95.7567L300.19 94.76L295.447 94.376L295.366 95.3727ZM292.913 98.9699L295.804 95.1775L295.009 94.5713L292.118 98.3637L292.913 98.9699ZM291.515 100.804L292.913 98.97L292.118 98.3637L290.72 100.198L291.515 100.804ZM293.469 100.304L291.182 100.005L291.052 100.997L293.339 101.296L293.469 100.304ZM99.1784 148.198L100.682 150.311L101.497 149.731L99.9932 147.618L99.1784 148.198ZM100.337 145.375L99.142 147.677L100.03 148.138L101.225 145.836L100.337 145.375ZM102.561 147.459L101.202 145.336L100.36 145.875L101.719 147.998L102.561 147.459ZM101.544 150.229L102.594 147.937L101.685 147.52L100.635 149.813L101.544 150.229ZM99.0931 143.431L96.8037 147.841L97.6912 148.302L99.9806 143.892L99.0931 143.431ZM100.157 141.382L99.0931 143.431L99.9806 143.892L101.044 141.843L100.157 141.382ZM102.266 143.287L101.021 141.343L100.179 141.882L101.423 143.826L102.266 143.287ZM104.834 147.3L102.266 143.287L101.423 143.826L103.992 147.839L104.834 147.3ZM102.882 152.11L104.867 147.778L103.958 147.361L101.973 151.693L102.882 152.11ZM101.92 154.208L102.882 152.11L101.973 151.693L101.011 153.792L101.92 154.208ZM99.7202 152.409L101.058 154.29L101.873 153.71L100.535 151.829L99.7202 152.409ZM96.8401 148.361L99.7202 152.409L100.535 151.829L97.6549 147.781L96.8401 148.361ZM339.644 105.625L337.705 103.905L337.041 104.653L338.981 106.373L339.644 105.625ZM339.331 103.427L338.823 105.898L339.802 106.1L340.311 103.629L339.331 103.427ZM337.671 102.123L339.471 103.885L340.171 103.171L338.37 101.408L337.671 102.123ZM337.857 104.404L338.504 101.89L337.536 101.641L336.889 104.154L337.857 104.404ZM335.615 105.089L336.855 100.276L335.887 100.026L334.647 104.839L335.615 105.089ZM339.179 107.886L335.463 104.59L334.799 105.338L338.515 108.634L339.179 107.886ZM340.906 109.417L339.179 107.886L338.515 108.634L340.242 110.165L340.906 109.417ZM340.549 107.43L340.084 109.69L341.064 109.892L341.529 107.631L340.549 107.43ZM341.51 102.761L340.549 107.43L341.529 107.631L342.49 102.963L341.51 102.761ZM338.246 99.8878L341.65 103.219L342.35 102.505L338.946 99.1731L338.246 99.8878ZM336.597 98.2734L338.246 99.8878L338.946 99.1731L337.296 97.5587L336.597 98.2734ZM336.855 100.276L337.431 98.0408L336.462 97.7913L335.887 100.026L336.855 100.276ZM249.011 133.379L248.67 135.953L249.661 136.084L250.002 133.51L249.011 133.379ZM251.781 132.105L249.339 132.973L249.674 133.915L252.116 133.048L251.781 132.105ZM251.987 135.15L252.44 132.666L251.456 132.487L251.003 134.97L251.987 135.15ZM249.356 136.481L251.685 135.522L251.304 134.597L248.975 135.556L249.356 136.481ZM252.195 129.836L247.517 131.498L247.851 132.44L252.53 130.778L252.195 129.836ZM254.37 129.063L252.195 129.836L252.53 130.778L254.704 130.005L254.37 129.063ZM254.614 131.894L255.029 129.624L254.045 129.444L253.631 131.714L254.614 131.894ZM253.758 136.583L254.614 131.894L253.631 131.714L252.774 136.404L253.758 136.583ZM249.053 138.769L253.456 136.956L253.076 136.031L248.673 137.844L249.053 138.769ZM246.92 139.647L249.053 138.769L248.673 137.844L246.539 138.722L246.92 139.647ZM246.536 136.832L246.234 139.119L247.225 139.25L247.528 136.963L246.536 136.832ZM247.188 131.904L246.536 136.832L247.528 136.963L248.18 132.035L247.188 131.904Z" fill="black"/>
<path id="Combined Shape_2" fill-rule="evenodd" clip-rule="evenodd" d="M212.43 11.6145L210.567 9.83962L209.981 12.2699L211.705 14.082L212.43 11.6145ZM213.297 15.7558L214.693 11.0081L211.109 7.5937L209.437 6L208.895 8.24592L207.781 12.8594L211.053 16.2986L212.646 17.9724L213.297 15.7558ZM54.6654 42.022L57.1881 41.5108L58.7921 43.5243L56.3187 43.9002L54.6654 42.022ZM57.9901 39.3076L61.073 43.1776L62.5105 44.9821L60.2296 45.3288L55.5393 46.0416L52.4043 42.4803L50.88 40.7486L53.1411 40.2903L57.9901 39.3076ZM73.8066 125.669L75.9798 124.282L78.1968 125.589L76.021 126.832L73.8066 125.669ZM75.9384 121.935L80.1968 124.447L82.1808 125.617L80.1807 126.76L76.0612 129.112L71.865 126.908L69.8258 125.837L71.7674 124.598L75.9384 121.935ZM197.601 148.242L199.957 147.218L201.948 148.861L199.612 149.742L197.601 148.242ZM200.284 144.895L204.104 148.048L205.882 149.515L203.725 150.329L199.293 152L195.487 149.16L193.64 147.782L195.754 146.864L200.284 144.895ZM139.985 137.685L133.681 141.26L133.719 134.204L139.669 130.432L139.985 137.685ZM226.424 81.7476L233.26 79.3205L234.213 72.128L227.692 74.8106L226.424 81.7476ZM284.725 127.386L283.953 124.931L282.258 126.771L282.891 129.192L284.725 127.386ZM283.474 131.424L287 127.954L285.516 123.233L284.824 121.032L283.261 122.73L280.047 126.22L281.246 130.811L281.83 133.043L283.474 131.424ZM260.793 37.4876L262.178 35.3099L264.737 35.5565L263.288 37.6045L260.793 37.4876ZM261.148 33.2014L266.067 33.6754L268.36 33.8965L267.03 35.7775L264.289 39.6536L259.557 39.4318L257.255 39.324L258.491 37.3797L261.148 33.2014ZM8.24207 125.365L10.1684 127.072L10.6733 124.621L8.88464 122.872L8.24207 125.365ZM7.2351 121.259L6 126.05L9.70293 129.331L11.4297 130.862L11.8952 128.602L12.8525 123.955L9.46057 120.638L7.81103 119.025L7.2351 121.259ZM85.1054 60.6022L85.4433 58.0502L87.8688 57.1891L87.4189 59.6505L85.1054 60.6022ZM83.6212 56.5747L88.2837 54.9195L90.4579 54.1476L90.0431 56.4172L89.19 61.0846L84.8025 62.8894L82.6688 63.7672L82.9717 61.48L83.6212 56.5747Z" fill="black"/>
</g>
</svg>
